<svg width="32" height="32" viewBox="0 0 32 32" fill="none" xmlns="http://www.w3.org/2000/svg">
<rect width="32" height="32" rx="8" fill="url(#paint0_linear_1522_123)"/>
<path d="M19 14C19.5523 14 20 14.4477 20 15C20 16.0609 19.5783 17.078 18.8281 17.8281C18.1248 18.5314 17.1869 18.9461 16.1982 18.9951L16 19C14.9391 19 13.922 18.5783 13.1719 17.8281C12.4217 17.078 12 16.0609 12 15C12 14.4477 12.4477 14 13 14C13.5523 14 14 14.4477 14 15C14 15.5304 14.2109 16.039 14.5859 16.4141C14.961 16.7891 15.4696 17 16 17L16.1973 16.9902C16.6553 16.9449 17.0858 16.7423 17.4141 16.4141C17.7891 16.039 18 15.5304 18 15C18 14.4477 18.4477 14 19 14Z" fill="#DFDFDF"/>
<path fill-rule="evenodd" clip-rule="evenodd" d="M20.4443 6C20.8683 6 21.2882 6.09435 21.6709 6.27734C22.0536 6.46034 22.3909 6.72798 22.6533 7.0625L24.4316 9.33008C24.7978 9.79712 25 10.3714 25 10.9668V22.2998C25 23.0305 24.6962 23.7221 24.1709 24.2246C23.647 24.7256 22.9451 24.9999 22.2227 25H9.77734C9.05486 24.9999 8.35301 24.7256 7.8291 24.2246C7.30378 23.7221 7 23.0305 7 22.2998V10.9668C7.00003 10.3714 7.20217 9.79712 7.56836 9.33008L9.34668 7.0625C9.60913 6.72798 9.94638 6.46035 10.3291 6.27734C10.7118 6.09435 11.1317 6 11.5557 6H20.4443ZM9 12V22.2998C9 22.4707 9.07065 22.6442 9.21191 22.7793C9.3546 22.9157 9.55717 22.9999 9.77734 23H22.2227C22.4428 22.9999 22.6454 22.9157 22.7881 22.7793C22.9293 22.6442 23 22.4707 23 22.2998V12H9ZM11.5557 8C11.4276 8 11.3024 8.02897 11.1914 8.08203C11.0808 8.135 10.9885 8.20945 10.9199 8.29688L9.58496 10H22.415L21.0801 8.29688C21.0115 8.20945 20.9192 8.135 20.8086 8.08203C20.6976 8.02897 20.5724 8 20.4443 8H11.5557Z" fill="#DFDFDF"/>
<defs>
<linearGradient id="paint0_linear_1522_123" x1="1.5" y1="1" x2="29.5" y2="32" gradientUnits="userSpaceOnUse">
<stop stop-color="#2D36D5"/>
<stop offset="1" stop-color="#0C1E30"/>
</linearGradient>
</defs>
</svg>
