<svg width="77" height="16" viewBox="0 0 77 16" fill="none" xmlns="http://www.w3.org/2000/svg">
<rect width="16" height="16" rx="4" fill="url(#paint0_linear_1522_248)"/>
<path d="M9.5 7C9.77614 7 10 7.22386 10 7.5C10 8.03043 9.78914 8.53899 9.41406 8.91406C9.06242 9.26571 8.59347 9.47305 8.09912 9.49756L8 9.5C7.46957 9.5 6.96101 9.28914 6.58594 8.91406C6.21086 8.53899 6 8.03043 6 7.5C6 7.22386 6.22386 7 6.5 7C6.77614 7 7 7.22386 7 7.5C7 7.76522 7.10543 8.0195 7.29297 8.20703C7.4805 8.39457 7.73478 8.5 8 8.5L8.09863 8.49512C8.32763 8.47243 8.54289 8.37117 8.70703 8.20703C8.89457 8.0195 9 7.76522 9 7.5C9 7.22386 9.22386 7 9.5 7Z" fill="#DFDFDF"/>
<path fill-rule="evenodd" clip-rule="evenodd" d="M10.2222 3C10.4341 3 10.6441 3.04717 10.8354 3.13867C11.0268 3.23017 11.1954 3.36399 11.3267 3.53125L12.2158 4.66504C12.3989 4.89856 12.5 5.18569 12.5 5.4834V11.1499C12.5 11.5153 12.3481 11.861 12.0854 12.1123C11.8235 12.3628 11.4726 12.4999 11.1113 12.5H4.88867C4.52743 12.4999 4.17651 12.3628 3.91455 12.1123C3.65189 11.861 3.5 11.5153 3.5 11.1499V5.4834C3.50002 5.18569 3.60108 4.89856 3.78418 4.66504L4.67334 3.53125C4.80457 3.36399 4.97319 3.23017 5.16455 3.13867C5.35592 3.04717 5.56586 3 5.77783 3H10.2222ZM4.5 6V11.1499C4.5 11.2353 4.53533 11.3221 4.60596 11.3896C4.6773 11.4579 4.77859 11.4999 4.88867 11.5H11.1113C11.2214 11.4999 11.3227 11.4579 11.394 11.3896C11.4647 11.3221 11.5 11.2353 11.5 11.1499V6H4.5ZM5.77783 4C5.71381 4 5.65119 4.01449 5.5957 4.04102C5.54041 4.0675 5.49425 4.10472 5.45996 4.14844L4.79248 5H11.2075L10.54 4.14844C10.5058 4.10473 10.4596 4.0675 10.4043 4.04102C10.3488 4.01449 10.2862 4 10.2222 4H5.77783Z" fill="#DFDFDF"/>
<path d="M74.0071 11.24C73.1271 11.24 72.4311 10.96 71.9191 10.4C71.4151 9.84 71.1631 9.02 71.1631 7.94C71.1631 7.22 71.2671 6.648 71.4751 6.224C71.6831 5.8 71.9711 5.5 72.3391 5.324C72.7151 5.14 73.1391 5.048 73.6111 5.048C74.0351 5.048 74.3791 5.1 74.6431 5.204C74.9071 5.308 75.1151 5.484 75.2671 5.732C75.2111 5.564 75.1671 5.408 75.1351 5.264C75.1111 5.112 75.0911 4.936 75.0751 4.736C75.0671 4.536 75.0631 4.28 75.0631 3.968V2.936C75.0631 2.312 75.3311 2 75.8671 2C76.4511 2 76.7431 2.312 76.7431 2.936V8.012C76.7431 9.092 76.5031 9.9 76.0231 10.436C75.5431 10.972 74.8711 11.24 74.0071 11.24ZM73.9231 9.8C74.2591 9.8 74.5191 9.68 74.7031 9.44C74.8951 9.2 74.9911 8.752 74.9911 8.096C74.9911 7.656 74.9471 7.324 74.8591 7.1C74.7791 6.868 74.6591 6.708 74.4991 6.62C74.3391 6.532 74.1471 6.488 73.9231 6.488C73.6991 6.488 73.5071 6.532 73.3471 6.62C73.1871 6.708 73.0631 6.868 72.9751 7.1C72.8951 7.324 72.8551 7.656 72.8551 8.096C72.8551 8.752 72.9471 9.2 73.1311 9.44C73.3231 9.68 73.5871 9.8 73.9231 9.8Z" fill="#293071"/>
<path d="M67.6872 11.24C67.1112 11.24 66.8232 10.968 66.8232 10.424V5.87597C66.8232 5.32397 67.1112 5.04797 67.6872 5.04797C67.9752 5.04797 68.1832 5.11197 68.3112 5.23997C68.4392 5.35997 68.5032 5.55997 68.5032 5.83997C68.6472 5.57597 68.8512 5.37997 69.1152 5.25197C69.3872 5.11597 69.7032 5.04797 70.0632 5.04797C70.7512 5.04797 71.0952 5.34797 71.0952 5.94797C71.0952 6.17197 71.0112 6.33997 70.8432 6.45197C70.6752 6.56397 70.3992 6.61997 70.0152 6.61997C69.6392 6.61997 69.3432 6.65597 69.1272 6.72797C68.9112 6.79197 68.7592 6.91597 68.6712 7.09997C68.5912 7.27597 68.5512 7.53197 68.5512 7.86797V10.424C68.5512 10.968 68.2632 11.24 67.6872 11.24Z" fill="#293071"/>
<path d="M63.0528 11.24C62.2528 11.24 61.6288 11.056 61.1808 10.688C60.7328 10.312 60.5088 9.82797 60.5088 9.23597C60.5088 8.53997 60.8008 8.03597 61.3848 7.72397C61.9768 7.41197 62.8408 7.30397 63.9768 7.39997C63.9208 7.03197 63.8048 6.78397 63.6288 6.65597C63.4528 6.51997 63.2408 6.45197 62.9928 6.45197C62.7928 6.45197 62.6248 6.46397 62.4888 6.48797C62.3608 6.50397 62.2408 6.52397 62.1288 6.54797C62.0168 6.57197 61.8808 6.58397 61.7208 6.58397C61.5048 6.58397 61.3328 6.54797 61.2048 6.47597C61.0768 6.39597 61.0128 6.23997 61.0128 6.00797C61.0128 5.67997 61.1528 5.43997 61.4328 5.28797C61.7208 5.12797 62.1728 5.04797 62.7888 5.04797C63.7648 5.04797 64.4888 5.32797 64.9608 5.88797C65.4328 6.43997 65.6688 7.17997 65.6688 8.10797C65.6688 9.17997 65.4728 9.97197 65.0808 10.484C64.6968 10.988 64.0208 11.24 63.0528 11.24ZM62.2368 9.23597C62.2368 9.69197 62.5448 9.91997 63.1608 9.91997C63.3608 9.91997 63.5168 9.88397 63.6288 9.81197C63.7408 9.73997 63.8208 9.59597 63.8688 9.37997C63.9248 9.16397 63.9648 8.83997 63.9888 8.40797C63.9488 8.44797 63.8968 8.47597 63.8328 8.49197C63.7688 8.50797 63.7048 8.51597 63.6408 8.51597C63.1128 8.51597 62.7448 8.56797 62.5368 8.67197C62.3368 8.76797 62.2368 8.95597 62.2368 9.23597Z" fill="#293071"/>
<path d="M57.0015 11.24C56.1455 11.24 55.4695 10.996 54.9735 10.508C54.4775 10.02 54.2295 9.23197 54.2295 8.14397C54.2295 7.04797 54.4775 6.25997 54.9735 5.77997C55.4695 5.29197 56.1455 5.04797 57.0015 5.04797C57.8575 5.04797 58.5335 5.29197 59.0295 5.77997C59.5255 6.25997 59.7735 7.04797 59.7735 8.14397C59.7735 9.23197 59.5255 10.02 59.0295 10.508C58.5335 10.996 57.8575 11.24 57.0015 11.24ZM57.0015 9.79997C57.2255 9.79997 57.4135 9.75597 57.5655 9.66797C57.7175 9.57197 57.8335 9.40397 57.9135 9.16397C58.0015 8.92397 58.0455 8.58397 58.0455 8.14397C58.0455 7.70397 58.0015 7.36397 57.9135 7.12397C57.8335 6.88397 57.7175 6.71997 57.5655 6.63197C57.4135 6.53597 57.2255 6.48797 57.0015 6.48797C56.7855 6.48797 56.5975 6.53597 56.4375 6.63197C56.2855 6.71997 56.1655 6.88397 56.0775 7.12397C55.9975 7.36397 55.9575 7.70397 55.9575 8.14397C55.9575 8.58397 55.9975 8.92397 56.0775 9.16397C56.1655 9.40397 56.2855 9.57197 56.4375 9.66797C56.5975 9.75597 56.7855 9.79997 57.0015 9.79997Z" fill="#293071"/>
<path d="M50.5407 11.24C49.6767 11.24 49.0047 10.972 48.5247 10.436C48.0447 9.9 47.8047 9.092 47.8047 8.012V2.936C47.8047 2.312 48.0967 2 48.6807 2C49.2167 2 49.4847 2.312 49.4847 2.936V3.968C49.4847 4.28 49.4767 4.536 49.4607 4.736C49.4527 4.936 49.4327 5.112 49.4007 5.264C49.3767 5.408 49.3367 5.564 49.2807 5.732C49.4327 5.484 49.6407 5.308 49.9047 5.204C50.1767 5.1 50.5207 5.048 50.9367 5.048C51.4167 5.048 51.8407 5.14 52.2087 5.324C52.5767 5.5 52.8647 5.8 53.0727 6.224C53.2807 6.648 53.3847 7.22 53.3847 7.94C53.3847 9.02 53.1287 9.84 52.6167 10.4C52.1127 10.96 51.4207 11.24 50.5407 11.24ZM50.6247 9.8C50.9607 9.8 51.2207 9.68 51.4047 9.44C51.5967 9.2 51.6927 8.752 51.6927 8.096C51.6927 7.656 51.6487 7.324 51.5607 7.1C51.4807 6.868 51.3607 6.708 51.2007 6.62C51.0407 6.532 50.8487 6.488 50.6247 6.488C50.4007 6.488 50.2087 6.532 50.0487 6.62C49.8887 6.708 49.7647 6.868 49.6767 7.1C49.5967 7.324 49.5567 7.656 49.5567 8.096C49.5567 8.752 49.6487 9.2 49.8327 9.44C50.0247 9.68 50.2887 9.8 50.6247 9.8Z" fill="#293071"/>
<path d="M44.7167 11.24C43.9167 11.24 43.2887 11.108 42.8327 10.844C42.3847 10.58 42.0647 10.216 41.8727 9.75197C41.6887 9.28797 41.5967 8.75597 41.5967 8.15597C41.5967 7.05197 41.8407 6.25997 42.3287 5.77997C42.8167 5.29197 43.4727 5.04797 44.2967 5.04797C44.7927 5.04797 45.2327 5.13197 45.6167 5.29997C46.0007 5.46797 46.3007 5.70797 46.5167 6.01997C46.7327 6.32397 46.8407 6.69597 46.8407 7.13597C46.8407 8.41597 45.9287 9.05597 44.1047 9.05597H43.4087C43.4727 9.30397 43.5767 9.49997 43.7207 9.64397C43.8727 9.77997 44.1367 9.84797 44.5127 9.84797C44.7207 9.84797 44.8887 9.83597 45.0167 9.81197C45.1447 9.78797 45.2647 9.76397 45.3767 9.73997C45.4967 9.71597 45.6327 9.70397 45.7847 9.70397C46.0007 9.70397 46.1727 9.74397 46.3007 9.82397C46.4287 9.89597 46.4927 10.048 46.4927 10.28C46.4927 10.608 46.3487 10.852 46.0607 11.012C45.7807 11.164 45.3327 11.24 44.7167 11.24ZM43.3247 8.16797C43.3887 8.07997 43.4607 8.02397 43.5407 7.99997C43.6207 7.96797 43.7447 7.95197 43.9127 7.95197C44.3847 7.95197 44.7087 7.90797 44.8847 7.81997C45.0687 7.72397 45.1607 7.55597 45.1607 7.31597C45.1607 7.01197 45.0767 6.77997 44.9087 6.61997C44.7407 6.45197 44.5287 6.36797 44.2727 6.36797C43.9767 6.36797 43.7447 6.49197 43.5767 6.73997C43.4087 6.98797 43.3247 7.46397 43.3247 8.16797Z" fill="#293071"/>
<path d="M38.1208 11.24C37.5448 11.24 37.2568 10.968 37.2568 10.424V5.87597C37.2568 5.32397 37.5448 5.04797 38.1208 5.04797C38.4088 5.04797 38.6168 5.11197 38.7448 5.23997C38.8728 5.35997 38.9368 5.55997 38.9368 5.83997C39.0808 5.57597 39.2848 5.37997 39.5488 5.25197C39.8208 5.11597 40.1368 5.04797 40.4968 5.04797C41.1848 5.04797 41.5288 5.34797 41.5288 5.94797C41.5288 6.17197 41.4448 6.33997 41.2768 6.45197C41.1088 6.56397 40.8328 6.61997 40.4488 6.61997C40.0728 6.61997 39.7768 6.65597 39.5608 6.72797C39.3448 6.79197 39.1928 6.91597 39.1048 7.09997C39.0248 7.27597 38.9848 7.53197 38.9848 7.86797V10.424C38.9848 10.968 38.6968 11.24 38.1208 11.24Z" fill="#293071"/>
<path d="M33.3296 11.24C32.4736 11.24 31.7976 10.996 31.3016 10.508C30.8056 10.02 30.5576 9.23197 30.5576 8.14397C30.5576 7.04797 30.8056 6.25997 31.3016 5.77997C31.7976 5.29197 32.4736 5.04797 33.3296 5.04797C34.1856 5.04797 34.8616 5.29197 35.3576 5.77997C35.8536 6.25997 36.1016 7.04797 36.1016 8.14397C36.1016 9.23197 35.8536 10.02 35.3576 10.508C34.8616 10.996 34.1856 11.24 33.3296 11.24ZM33.3296 9.79997C33.5536 9.79997 33.7416 9.75597 33.8936 9.66797C34.0456 9.57197 34.1616 9.40397 34.2416 9.16397C34.3296 8.92397 34.3736 8.58397 34.3736 8.14397C34.3736 7.70397 34.3296 7.36397 34.2416 7.12397C34.1616 6.88397 34.0456 6.71997 33.8936 6.63197C33.7416 6.53597 33.5536 6.48797 33.3296 6.48797C33.1136 6.48797 32.9256 6.53597 32.7656 6.63197C32.6136 6.71997 32.4936 6.88397 32.4056 7.12397C32.3256 7.36397 32.2856 7.70397 32.2856 8.14397C32.2856 8.58397 32.3256 8.92397 32.4056 9.16397C32.4936 9.40397 32.6136 9.57197 32.7656 9.66797C32.9256 9.75597 33.1136 9.79997 33.3296 9.79997Z" fill="#293071"/>
<path d="M28.4253 11.24C27.6813 11.24 27.1293 11.064 26.7693 10.712C26.4173 10.36 26.2413 9.82 26.2413 9.092V6.596H25.9293C25.3853 6.596 25.1133 6.352 25.1133 5.864C25.1133 5.384 25.3853 5.144 25.9293 5.144H26.2413V3.848C26.2413 3.584 26.3213 3.368 26.4813 3.2C26.6493 3.032 26.8653 2.948 27.1293 2.948C27.3853 2.948 27.5893 3.028 27.7413 3.188C27.8933 3.34 27.9693 3.552 27.9693 3.824V4.412C27.9693 4.708 27.9213 4.952 27.8253 5.144H28.9653C29.5093 5.144 29.7813 5.384 29.7813 5.864C29.7813 6.352 29.5093 6.596 28.9653 6.596H27.9693V9.128C27.9693 9.368 27.9973 9.54 28.0533 9.644C28.1093 9.74 28.2013 9.788 28.3293 9.788C28.4973 9.788 28.6213 9.776 28.7013 9.752C28.7893 9.72 28.8973 9.704 29.0253 9.704C29.2413 9.704 29.4133 9.744 29.5413 9.824C29.6693 9.896 29.7333 10.048 29.7333 10.28C29.7333 10.608 29.6293 10.852 29.4213 11.012C29.2133 11.164 28.8813 11.24 28.4253 11.24Z" fill="#293071"/>
<path d="M22.256 11.24C20.752 11.24 20 10.908 20 10.244C20 10.036 20.056 9.87196 20.168 9.75196C20.28 9.63196 20.428 9.57196 20.612 9.57196C20.692 9.57196 20.768 9.58396 20.84 9.60796C20.92 9.62396 21.072 9.66796 21.296 9.73996C21.392 9.77196 21.52 9.80396 21.68 9.83596C21.84 9.86796 21.996 9.88396 22.148 9.88396C22.436 9.88396 22.64 9.84796 22.76 9.77596C22.88 9.70396 22.94 9.58396 22.94 9.41596C22.94 9.27996 22.908 9.17596 22.844 9.10396C22.78 9.02396 22.644 8.94796 22.436 8.87596C22.228 8.80396 21.904 8.70396 21.464 8.57596C21.064 8.46396 20.74 8.26396 20.492 7.97596C20.252 7.67996 20.132 7.31596 20.132 6.88396C20.132 6.27596 20.352 5.81196 20.792 5.49196C21.232 5.17196 21.836 5.01196 22.604 5.01196C23.18 5.01196 23.632 5.09196 23.96 5.25196C24.288 5.41196 24.452 5.64396 24.452 5.94796C24.452 6.13996 24.396 6.29996 24.284 6.42796C24.172 6.55596 24.02 6.61996 23.828 6.61996C23.748 6.61996 23.652 6.60796 23.54 6.58396C23.436 6.55996 23.308 6.52796 23.156 6.48796C23.044 6.44796 22.924 6.41596 22.796 6.39196C22.676 6.36796 22.548 6.35596 22.412 6.35596C22.028 6.35596 21.836 6.49196 21.836 6.76396C21.836 6.92396 21.912 7.05996 22.064 7.17196C22.216 7.27596 22.508 7.39196 22.94 7.51996C23.532 7.69596 23.968 7.93196 24.248 8.22796C24.528 8.51596 24.668 8.89996 24.668 9.37996C24.668 9.93996 24.452 10.392 24.02 10.736C23.596 11.072 23.008 11.24 22.256 11.24Z" fill="#293071"/>
<defs>
<linearGradient id="paint0_linear_1522_248" x1="0.75" y1="0.5" x2="14.75" y2="16" gradientUnits="userSpaceOnUse">
<stop stop-color="#2D36D5"/>
<stop offset="1" stop-color="#0C1E30"/>
</linearGradient>
</defs>
</svg>
